<mxfile host="65bd71144e">
    <diagram id="TFgwp_gN6hOIUd9EAKVw" name="第 1 页">
        <mxGraphModel dx="896" dy="601" grid="0" gridSize="10" guides="1" tooltips="1" connect="1" arrows="1" fold="1" page="1" pageScale="1" pageWidth="827" pageHeight="1169" background="#ffffff" math="0" shadow="0">
            <root>
                <mxCell id="0"/>
                <mxCell id="1" parent="0"/>
                <mxCell id="5" style="edgeStyle=orthogonalEdgeStyle;html=1;entryX=0;entryY=0.5;entryDx=0;entryDy=0;strokeColor=#000000;curved=1;" edge="1" parent="1" source="2" target="3">
                    <mxGeometry relative="1" as="geometry">
                        <Array as="points">
                            <mxPoint x="237" y="167"/>
                            <mxPoint x="237" y="339"/>
                        </Array>
                    </mxGeometry>
                </mxCell>
                <mxCell id="2" value="&lt;font color=&quot;#000000&quot;&gt;&lt;span style=&quot;font-size: 20px&quot;&gt;READY&lt;/span&gt;&lt;/font&gt;" style="ellipse;whiteSpace=wrap;html=1;aspect=fixed;fillColor=#FFFFFF;strokeColor=#000000;" vertex="1" parent="1">
                    <mxGeometry x="299" y="108" width="101" height="101" as="geometry"/>
                </mxCell>
                <mxCell id="6" style="edgeStyle=orthogonalEdgeStyle;curved=1;html=1;entryX=0.01;entryY=0.574;entryDx=0;entryDy=0;entryPerimeter=0;strokeColor=#000000;" edge="1" parent="1" source="3" target="4">
                    <mxGeometry relative="1" as="geometry">
                        <Array as="points">
                            <mxPoint x="223" y="368"/>
                            <mxPoint x="223" y="520"/>
                        </Array>
                    </mxGeometry>
                </mxCell>
                <mxCell id="8" style="edgeStyle=orthogonalEdgeStyle;curved=1;html=1;entryX=1;entryY=0.5;entryDx=0;entryDy=0;strokeColor=#000000;" edge="1" parent="1" source="3" target="2">
                    <mxGeometry relative="1" as="geometry">
                        <Array as="points">
                            <mxPoint x="350" y="263"/>
                            <mxPoint x="496" y="263"/>
                            <mxPoint x="496" y="157"/>
                        </Array>
                    </mxGeometry>
                </mxCell>
                <mxCell id="3" value="&lt;span style=&quot;background-color: rgb(255 , 255 , 255)&quot;&gt;&lt;font color=&quot;#000000&quot; style=&quot;font-size: 16px&quot;&gt;TAG_CHECK&lt;/font&gt;&lt;/span&gt;" style="ellipse;whiteSpace=wrap;html=1;aspect=fixed;fillColor=#FFFFFF;strokeColor=#000000;" vertex="1" parent="1">
                    <mxGeometry x="299" y="288" width="101" height="101" as="geometry"/>
                </mxCell>
                <mxCell id="7" style="edgeStyle=orthogonalEdgeStyle;curved=1;html=1;entryX=0.99;entryY=0.446;entryDx=0;entryDy=0;entryPerimeter=0;strokeColor=#000000;" edge="1" parent="1" source="4" target="3">
                    <mxGeometry relative="1" as="geometry">
                        <Array as="points">
                            <mxPoint x="527" y="513"/>
                            <mxPoint x="527" y="333"/>
                        </Array>
                    </mxGeometry>
                </mxCell>
                <mxCell id="4" value="&lt;font color=&quot;#000000&quot;&gt;&lt;span style=&quot;font-size: 20px&quot;&gt;REFILL&lt;br&gt;&lt;/span&gt;&lt;/font&gt;" style="ellipse;whiteSpace=wrap;html=1;aspect=fixed;fillColor=#FFFFFF;strokeColor=#000000;" vertex="1" parent="1">
                    <mxGeometry x="302" y="462" width="101" height="101" as="geometry"/>
                </mxCell>
                <mxCell id="10" value="" style="curved=1;endArrow=classic;html=1;fontFamily=Helvetica;fontSize=20;fontColor=#000000;strokeColor=#000000;entryX=0.5;entryY=0;entryDx=0;entryDy=0;" edge="1" parent="1" target="2">
                    <mxGeometry width="50" height="50" relative="1" as="geometry">
                        <mxPoint x="503" y="26" as="sourcePoint"/>
                        <mxPoint x="483" y="272" as="targetPoint"/>
                        <Array as="points">
                            <mxPoint x="429" y="52"/>
                            <mxPoint x="503" y="26"/>
                            <mxPoint x="315" y="91"/>
                        </Array>
                    </mxGeometry>
                </mxCell>
                <mxCell id="11" value="RESET" style="text;html=1;align=center;verticalAlign=middle;resizable=0;points=[];autosize=1;strokeColor=none;fillColor=none;fontSize=20;fontFamily=Helvetica;fontColor=#000000;" vertex="1" parent="1">
                    <mxGeometry x="326" y="35" width="77" height="28" as="geometry"/>
                </mxCell>
                <mxCell id="12" value="读cache操作" style="text;html=1;align=center;verticalAlign=middle;resizable=0;points=[];autosize=1;strokeColor=none;fillColor=none;fontSize=20;fontFamily=Helvetica;fontColor=#000000;" vertex="1" parent="1">
                    <mxGeometry x="94" y="80" width="123" height="28" as="geometry"/>
                </mxCell>
                <mxCell id="13" value="READY：等待数据以及信号输入&lt;br&gt;或者为查找后输出结果" style="text;html=1;align=center;verticalAlign=middle;resizable=0;points=[];autosize=1;strokeColor=none;fillColor=none;fontSize=20;fontFamily=Helvetica;fontColor=#000000;" vertex="1" parent="1">
                    <mxGeometry x="511" y="108" width="299" height="52" as="geometry"/>
                </mxCell>
                <mxCell id="15" value="TAG_CHECK：检查是否读命中&lt;br&gt;（tag是否相等）" style="text;html=1;align=center;verticalAlign=middle;resizable=0;points=[];autosize=1;strokeColor=none;fillColor=none;fontSize=20;fontFamily=Helvetica;fontColor=#000000;" vertex="1" parent="1">
                    <mxGeometry x="511" y="263" width="291" height="52" as="geometry"/>
                </mxCell>
                <mxCell id="16" value="REFILL：根据未命中的tag从主存中&lt;br&gt;重新读取数据到cache" style="text;html=1;align=center;verticalAlign=middle;resizable=0;points=[];autosize=1;strokeColor=none;fillColor=none;fontSize=20;fontFamily=Helvetica;fontColor=#000000;" vertex="1" parent="1">
                    <mxGeometry x="494" y="486.5" width="326" height="52" as="geometry"/>
                </mxCell>
                <mxCell id="17" value="&lt;span style=&quot;font-size: 15px&quot;&gt;检测读信号&lt;/span&gt;" style="text;html=1;align=center;verticalAlign=middle;resizable=0;points=[];autosize=1;strokeColor=none;fillColor=none;fontSize=20;fontFamily=Helvetica;fontColor=#000000;" vertex="1" parent="1">
                    <mxGeometry x="155" y="224" width="85" height="30" as="geometry"/>
                </mxCell>
                <mxCell id="18" value="检测到读丢失&lt;br&gt;" style="text;html=1;align=center;verticalAlign=middle;resizable=0;points=[];autosize=1;strokeColor=none;fillColor=none;fontSize=15;fontFamily=Helvetica;fontColor=#000000;" vertex="1" parent="1">
                    <mxGeometry x="123" y="445" width="100" height="22" as="geometry"/>
                </mxCell>
            </root>
        </mxGraphModel>
    </diagram>
</mxfile>